<svg xmlns="http://www.w3.org/2000/svg" viewBox="0 0 10.19 10.19">
    <defs>
        <style>
        .a {
            fill: #fff;
        }
        
        .b {
            fill: #efcca4;
        }
        </style>
    </defs>
    <title>logo-icon</title>
    <polygon class="a" points="1.02 1.02 6.12 1.02 6.12 2.04 7.14 2.04 7.14 0 0 0 0 7.14 2.04 7.14 2.04 6.12 1.02 6.12 1.02 1.02" />
    <polygon class="a" points="8.15 3.06 8.15 4.08 9.18 4.08 9.18 9.17 4.08 9.17 4.08 8.15 3.06 8.15 3.06 10.19 10.19 10.19 10.19 3.06 8.15 3.06" />
    <path class="a" d="M10,6H6V10H10V6ZM9,9H7V7H9V9Z" transform="translate(-2.9 -2.9)" />
    <rect class="b" x="3.03" y="3.06" width="4.15" height="4.08" />
</svg>