<svg xmlns="http://www.w3.org/2000/svg" viewBox="0 0 512 512"><defs><style>.a{fill:#fff;}</style></defs><title>signout</title><path class="a" d="M86.21,512H425.79A86.4,86.4,0,0,0,512,425.59V256a18.89,18.89,0,0,0-18.83-18.83H203.69l41.53-41.53A18.83,18.83,0,1,0,218.65,169L145,242.61a18.94,18.94,0,0,0,0,26.68l73.65,73.65a18.86,18.86,0,0,0,26.68-26.68l-41.64-41.43H474.34V425.59a48.69,48.69,0,0,1-48.54,48.75H86.21a48.69,48.69,0,0,1-48.54-48.75V86.41A48.69,48.69,0,0,1,86.21,37.66H425.79a48.69,48.69,0,0,1,48.54,48.75v43.94a18.83,18.83,0,0,0,37.66,0V86.41C512,38.81,473.29,0,425.79,0H86.21A86.4,86.4,0,0,0,0,86.41V425.59C0,473.19,38.71,512,86.21,512Z" transform="translate(0 0)"/></svg>