<svg xmlns="http://www.w3.org/2000/svg" viewBox="0 0 484.01 484"><defs><style>.a{fill:#fff;stroke:#fff;stroke-miterlimit:10;stroke-width:14px;}</style></defs><title>subscribe1</title><path class="a" d="M470,488.78H399a22,22,0,0,1-22-22,330.85,330.85,0,0,0-97.58-235.5A330.85,330.85,0,0,0,44,133.71a22,22,0,0,1-22-22v-71A22,22,0,0,1,44,18.78c119.65,0,232.15,46.61,316.78,131.23S492,347.14,492,466.79A22,22,0,0,1,470,488.78ZM44,34.31a6.44,6.44,0,0,0-6.45,6.42v71A6.44,6.44,0,0,0,44,118.18,346.3,346.3,0,0,1,290.45,220.31,346.27,346.27,0,0,1,392.57,466.79a6.45,6.45,0,0,0,6.45,6.45h71a6.45,6.45,0,0,0,6.45-6.45c0-115.51-45-224.11-126.7-305.8S159.47,34.31,44,34.31ZM313.79,488.78h-71a22,22,0,0,1-22-22,175.7,175.7,0,0,0-51.8-125A175.74,175.74,0,0,0,44,289.95a22,22,0,0,1-22-22V197a22,22,0,0,1,22-22,290,290,0,0,1,206.32,85.48A289.86,289.86,0,0,1,335.75,466.8,22,22,0,0,1,313.79,488.78ZM44,190.53A6.45,6.45,0,0,0,37.53,197v71A6.45,6.45,0,0,0,44,274.42a191.18,191.18,0,0,1,136,56.37,191.09,191.09,0,0,1,56.35,136,6.44,6.44,0,0,0,6.43,6.45h71a6.44,6.44,0,0,0,6.43-6.45,274.43,274.43,0,0,0-80.91-195.34A274.54,274.54,0,0,0,44,190.53Zm49.7,298.25a71.68,71.68,0,1,1,71.68-71.69A71.76,71.76,0,0,1,93.67,488.78Zm0-127.82a56.14,56.14,0,1,0,56.14,56.13A56.2,56.2,0,0,0,93.67,361Z" transform="translate(-15 -11.78)"/></svg>